<svg xmlns="http://www.w3.org/2000/svg" xmlns:xlink="http://www.w3.org/1999/xlink" width="437.847" height="432.327" viewBox="0 0 437.847 432.327">
  <defs>
    <filter id="Face" x="7.847" y="2.327" width="430" height="430" filterUnits="userSpaceOnUse">
      <feOffset dx="10" dy="10" input="SourceAlpha"/>
      <feGaussianBlur stdDeviation="5" result="blur"/>
      <feFlood flood-color="#707070" flood-opacity="0.502"/>
      <feComposite operator="in" in2="blur"/>
      <feComposite in="SourceGraphic"/>
    </filter>
    <clipPath id="clip-path">
      <rect width="184" height="49" fill="none"/>
    </clipPath>
    <filter id="truck-solid" x="182.735" y="53.771" width="62.623" height="53.099" filterUnits="userSpaceOnUse">
      <feOffset dx="1" dy="1" input="SourceAlpha"/>
      <feGaussianBlur stdDeviation="2.5" result="blur-2"/>
      <feFlood flood-opacity="0.302"/>
      <feComposite operator="in" in2="blur-2"/>
      <feComposite in="SourceGraphic"/>
    </filter>
    <filter id="Caminho_3" x="0" y="105.463" width="426.719" height="81.295" filterUnits="userSpaceOnUse">
      <feOffset dy="6" input="SourceAlpha"/>
      <feGaussianBlur stdDeviation="5" result="blur-3"/>
      <feFlood flood-opacity="0.341"/>
      <feComposite operator="in" in2="blur-3"/>
      <feComposite in="SourceGraphic"/>
    </filter>
  </defs>
  <g id="Face-2" data-name="Face" transform="translate(-286.025 -286.673)">
    <g transform="matrix(1, 0, 0, 1, 286.02, 286.67)" filter="url(#Face)">
      <circle id="Face-3" data-name="Face" cx="200" cy="200" r="200" transform="translate(12.85 7.33)" fill="#fff"/>
    </g>
    <g id="Eyes" transform="translate(445.888 493.413)">
      <g id="Repetição_de_grade_2" data-name="Repetição de grade 2" transform="translate(-39 -34)" clip-path="url(#clip-path)">
        <g transform="translate(-426 -403)">
          <g id="Elipse_4" data-name="Elipse 4" transform="translate(426 407)" fill="#707070" stroke="#707070" stroke-width="1">
            <circle cx="28.5" cy="28.5" r="28.5" stroke="none"/>
            <circle cx="28.5" cy="28.5" r="28" fill="none"/>
          </g>
        </g>
        <g transform="translate(-303 -403)">
          <g id="Elipse_4-2" data-name="Elipse 4" transform="translate(426 407)" fill="#707070" stroke="#707070" stroke-width="1">
            <circle cx="28.5" cy="28.5" r="28.5" stroke="none"/>
            <circle cx="28.5" cy="28.5" r="28" fill="none"/>
          </g>
        </g>
      </g>
    </g>
    <g id="Mouth" transform="translate(409.64 585.449)">
      <path id="Caminho_1" data-name="Caminho 1" d="M-1097.9,859.461c-.2,9.765,10.58,38.063,44.333,55.324,35.265,13.72,74.057,8.852,95.719-2.213,33.25-18.146,39.3-53.111,39.3-53.111Z" transform="translate(1097.904 -859.461)" fill="#707070" stroke="#707070" stroke-width="1"/>
    </g>
    <g id="Cap" transform="translate(301.025 288.507)">
      <path id="Caminho_2" data-name="Caminho 2" d="M312.378,443.5c.351-25.242,23.984-70.432,51.495-101.9,19.664-22.494,38.5-32.92,65.682-47.074,24.856-12.942,63.709-16.237,84.6-16.7,22.433-.852,44.431,4.9,73.038,16.7,27.05,11.157,51.72,30.03,69.441,47.074C704.27,387.415,709.1,443.5,709.1,443.5s-95.765-20.491-194.944-20.491S312.378,443.5,312.378,443.5Z" transform="translate(-312.378 -279.573)" fill="#6d6e71"/>
      <g transform="matrix(1, 0, 0, 1, -15, -1.83)" filter="url(#truck-solid)">
        <path id="truck-solid-2" data-name="truck-solid" d="M46.433,26.193H45.242V18.149a3.572,3.572,0,0,0-1.049-2.523L36.759,8.193a3.572,3.572,0,0,0-2.523-1.049H30.955V3.572A3.573,3.573,0,0,0,27.383,0H3.572A3.573,3.573,0,0,0,0,3.572V27.383a3.573,3.573,0,0,0,3.572,3.572H4.762a7.144,7.144,0,1,0,14.287,0h9.525a7.144,7.144,0,1,0,14.287,0h3.572a1.194,1.194,0,0,0,1.191-1.191V27.383A1.194,1.194,0,0,0,46.433,26.193ZM11.906,34.527a3.572,3.572,0,1,1,3.572-3.572A3.573,3.573,0,0,1,11.906,34.527Zm23.812,0a3.572,3.572,0,1,1,3.572-3.572A3.573,3.573,0,0,1,35.718,34.527Zm5.953-15.478H30.955V10.715h3.282l7.434,7.434Z" transform="translate(189.24 60.27)" fill="#ebebeb"/>
      </g>
      <g transform="matrix(1, 0, 0, 1, -15, -1.83)" filter="url(#Caminho_3)">
        <path id="Caminho_3-2" data-name="Caminho 3" d="M311.681,461.193s102.1-50.989,201.28-51.294S708.4,455.487,708.4,459.975s-96.259-13.957-195.439-13.652S311.681,461.193,311.681,461.193Z" transform="translate(-296.68 -295.44)" fill="#9e260e"/>
      </g>
    </g>
  </g>
</svg>
